<svg height="512pt" viewBox="0 -34 512.03991 512" width="512pt" xmlns="http://www.w3.org/2000/svg"><path d="m311.917969 406.222656-55.894531 29.015625-55.894532-29.015625c-33.304687-17.160156-64.421875-38.277344-92.671875-62.890625-67.414062-59.390625-114.261719-140.203125-94.292969-233.214843 6.433594-33.011719 25.878907-62.046876 53.949219-80.570313 28.074219-18.523437 62.417969-24.972656 95.300781-17.902344 46.035157 11.085938 82.101563 46.824219 93.609376 92.753907 11.507812-45.929688 47.574218-81.667969 93.609374-92.753907 13.453126-3.105469 27.339844-3.855469 41.046876-2.21875 53.90625 6.929688 97.414062 47.421875 108.203124 100.691407 28.328126 132.179687-77.996093 239.617187-186.964843 296.105468zm0 0" fill="#c81e1e"/><path d="m443.757812 153.296875c.015626 79.996094-43.042968 153.804687-112.691406 193.164063-69.644531 39.355468-155.089844 38.160156-223.609375-3.128907-67.414062-59.390625-114.261719-140.203125-94.292969-233.214843 6.433594-33.011719 25.878907-62.046876 53.949219-80.570313 28.074219-18.523437 62.417969-24.972656 95.300781-17.902344 46.035157 11.085938 82.101563 46.824219 93.609376 92.753907 11.507812-45.929688 47.574218-81.667969 93.609374-92.753907 13.453126-3.105469 27.339844-3.855469 41.046876-2.21875 34.332031 40.0625 53.164062 91.109375 53.078124 143.871094zm0 0" fill="#f44335"/><path d="m187.757812 243.238281c0-11.78125-17.195312-21.335937-38.402343-21.335937s-38.398438 9.554687-38.398438 21.335937 17.191407 21.332031 38.398438 21.332031 38.402343-9.550781 38.402343-21.332031zm0 0" fill="#bb193b"/><path d="m401.089844 243.238281c0-11.78125-17.191406-21.335937-38.398438-21.335937-21.210937 0-38.402344 9.554687-38.402344 21.335937s17.191407 21.332031 38.402344 21.332031c21.207032 0 38.398438-9.550781 38.398438-21.332031zm0 0" fill="#bb193b"/><path d="m170.691406 213.371094c-14.140625 0-25.601562-11.460938-25.601562-25.601563 0-14.136719 11.460937-25.597656 25.601562-25.597656 14.136719 0 25.597656 11.460937 25.597656 25.597656 0 14.140625-11.460937 25.601563-25.597656 25.601563zm0 0" fill="#283593"/><path d="m341.355469 213.371094c-14.136719 0-25.597657-11.460938-25.597657-25.601563 0-14.136719 11.460938-25.597656 25.597657-25.597656 14.140625 0 25.601562 11.460937 25.601562 25.597656 0 14.140625-11.460937 25.601563-25.601562 25.601563zm0 0" fill="#283593"/><path d="m446.769531 20.515625c-29.347656-18.847656-65.070312-25.035156-99.046875-17.148437-40.683594 9.574218-74.582031 37.550781-91.699218 75.679687-17.117188-38.128906-51.023438-66.109375-91.707032-75.679687-33.984375-7.867188-69.703125-1.664063-99.039062 17.203124-31.15625 19.902344-52.953125 51.554688-60.433594 87.761719-29.335938 136.902344 79.597656 247.546875 191.328125 305.488281l55.925781 29.011719c2.460938 1.273438 5.390625 1.273438 7.851563 0l55.925781-29.011719c111.726562-57.917968 220.664062-168.585937 191.316406-305.496093-7.460937-36.226563-29.253906-67.894531-60.421875-87.808594zm-138.753906 378.15625-51.992187 26.957031-51.992188-26.957031c-106.148438-55.023437-209.820312-159.25-182.496094-286.761719 6.535156-31.734375 25.613282-59.480468 52.90625-76.9375 25.484375-16.414062 56.523438-21.816406 86.050782-14.976562 42.964843 10.308594 76.613281 43.683594 87.277343 86.5625.988281 3.746094 4.378907 6.359375 8.253907 6.359375s7.265624-2.613281 8.25-6.359375c10.671874-42.890625 44.339843-76.265625 87.324218-86.5625 29.511719-6.820313 60.527344-1.429688 86.007813 14.949218 27.296875 17.464844 46.375 45.222657 52.90625 76.964844 27.324219 127.511719-76.347657 231.738282-182.496094 286.761719zm0 0"/><path d="m152.847656 53.257812c4.5625.988282 9.070313-1.878906 10.117188-6.425781 1.046875-4.550781-1.757813-9.097656-6.296875-10.203125-7.035157-1.625-14.238281-2.449218-21.460938-2.457031-47.375 1.066406-87.671875 34.855469-96.980469 81.320313-.988281 4.609374 1.949219 9.148437 6.558594 10.132812 4.609375.988281 9.144532-1.945312 10.132813-6.554688 7.589843-38.617187 40.949219-66.800781 80.289062-67.832031 5.9375.007813 11.855469.6875 17.640625 2.019531zm0 0"/><path d="m170.691406 162.171875c-14.140625 0-25.601562 11.460937-25.601562 25.597656 0 14.140625 11.460937 25.601563 25.601562 25.601563 14.136719 0 25.597656-11.460938 25.597656-25.601563 0-14.136719-11.460937-25.597656-25.597656-25.597656zm0 34.132813c-4.714844 0-8.535156-3.820313-8.535156-8.535157 0-4.710937 3.820312-8.53125 8.535156-8.53125 4.710938 0 8.53125 3.820313 8.53125 8.53125 0 4.714844-3.820312 8.535157-8.53125 8.535157zm0 0"/><path d="m341.355469 162.171875c-14.136719 0-25.597657 11.460937-25.597657 25.597656 0 14.140625 11.460938 25.601563 25.597657 25.601563 14.140625 0 25.601562-11.460938 25.601562-25.601563 0-14.136719-11.460937-25.597656-25.601562-25.597656zm0 34.132813c-4.710938 0-8.53125-3.820313-8.53125-8.535157 0-4.710937 3.820312-8.53125 8.53125-8.53125 4.714843 0 8.535156 3.820313 8.535156 8.53125 0 4.714844-3.820313 8.535157-8.535156 8.535157zm0 0"/><path d="m298.886719 222.015625c-4.585938.117187-8.34375 3.664063-8.730469 8.234375-.085938 1.765625-1.765625 17.253906-34.132812 17.253906-32.214844 0-34.03125-15.359375-34.132813-17.230468-.046875-4.710938-3.902344-8.496094-8.617187-8.449219-4.710938.042969-8.496094 3.898437-8.449219 8.613281 0 .339844.585937 34.132812 51.199219 34.132812 50.609374 0 51.199218-33.792968 51.199218-34.132812-.011718-4.613281-3.722656-8.363281-8.335937-8.421875zm0 0"/><path d="m130.523438 232.9375-8.535157 8.535156c-2.214843 2.140625-3.105469 5.3125-2.324219 8.296875s3.109376 5.3125 6.09375 6.09375c2.984376.78125 6.15625-.109375 8.296876-2.328125l8.535156-8.53125c3.234375-3.347656 3.1875-8.671875-.105469-11.960937-3.289063-3.292969-8.613281-3.339844-11.960937-.105469zm0 0"/><path d="m164.65625 232.9375-8.53125 8.535156c-2.21875 2.140625-3.109375 5.3125-2.328125 8.296875s3.109375 5.3125 6.09375 6.09375 6.15625-.109375 8.296875-2.328125l8.535156-8.53125c3.234375-3.347656 3.1875-8.671875-.105468-11.960937-3.289063-3.292969-8.613282-3.339844-11.960938-.105469zm0 0"/><path d="m381.523438 232.9375c-3.347657-3.234375-8.671876-3.1875-11.964844.105469-3.289063 3.289062-3.335938 8.613281-.101563 11.960937l8.53125 8.53125c3.351563 3.234375 8.671875 3.191406 11.964844-.101562 3.289063-3.292969 3.335937-8.613282.101563-11.960938zm0 0"/><path d="m347.390625 232.9375c-3.347656-3.234375-8.671875-3.1875-11.964844.105469-3.289062 3.289062-3.335937 8.613281-.101562 11.960937l8.53125 8.53125c3.347656 3.234375 8.671875 3.191406 11.964843-.101562 3.289063-3.292969 3.335938-8.613282.101563-11.960938zm0 0"/><path d="m51.222656 153.636719c0 4.714843-3.820312 8.535156-8.53125 8.535156-4.714844 0-8.535156-3.820313-8.535156-8.535156 0-4.710938 3.820312-8.53125 8.535156-8.53125 4.710938 0 8.53125 3.820312 8.53125 8.53125zm0 0"/></svg>