<svg height="512pt" viewBox="0 -34 512.03991 512" width="512pt" xmlns="http://www.w3.org/2000/svg"><path d="m311.917969 406.222656-55.894531 29.011719-55.894532-29.011719c-33.304687-17.164062-64.421875-38.277344-92.671875-62.890625-67.414062-59.394531-114.261719-140.203125-94.292969-233.21875 6.433594-33.011719 25.878907-62.046875 53.949219-80.570312 28.074219-18.519531 62.417969-24.972657 95.300781-17.902344 46.035157 11.085937 82.101563 46.824219 93.609376 92.757813 11.507812-45.933594 47.574218-81.671876 93.609374-92.757813 13.453126-3.105469 27.339844-3.855469 41.046876-2.21875 53.90625 6.933594 97.414062 47.421875 108.203124 100.691406 28.328126 132.183594-77.996093 239.617188-186.964843 296.109375zm0 0" fill="#c81e1e"/><path d="m443.757812 153.292969c.015626 79.996093-43.042968 153.808593-112.691406 193.164062-69.644531 39.355469-155.089844 38.160157-223.609375-3.125-67.414062-59.394531-114.261719-140.203125-94.292969-233.21875 6.433594-33.011719 25.878907-62.046875 53.949219-80.570312 28.074219-18.519531 62.417969-24.972657 95.300781-17.902344 46.035157 11.085937 82.101563 46.824219 93.609376 92.757813 11.507812-45.933594 47.574218-81.671876 93.609374-92.757813 13.453126-3.105469 27.339844-3.855469 41.046876-2.21875 34.332031 40.0625 53.164062 91.109375 53.078124 143.871094zm0 0" fill="#f44335"/><path d="m187.757812 243.234375c0-11.78125-17.195312-21.332031-38.402343-21.332031s-38.398438 9.550781-38.398438 21.332031 17.191407 21.332031 38.398438 21.332031 38.402343-9.550781 38.402343-21.332031zm0 0" fill="#bb193b"/><path d="m401.089844 243.234375c0-11.78125-17.191406-21.332031-38.398438-21.332031-21.210937 0-38.402344 9.550781-38.402344 21.332031s17.191407 21.332031 38.402344 21.332031c21.207032 0 38.398438-9.550781 38.398438-21.332031zm0 0" fill="#bb193b"/><path d="m446.769531 20.515625c-29.351562-18.847656-65.070312-25.03125-99.046875-17.152344-40.683594 9.574219-74.582031 37.554688-91.699218 75.679688-17.117188-38.128907-51.023438-66.109375-91.707032-75.679688-33.984375-7.867187-69.703125-1.664062-99.039062 17.203125-31.15625 19.90625-52.953125 51.554688-60.433594 87.765625-29.335938 136.898438 79.597656 247.542969 191.328125 305.484375l55.925781 29.011719c2.460938 1.277344 5.390625 1.277344 7.851563 0l55.925781-29.011719c111.726562-57.917968 220.664062-168.585937 191.316406-305.492187-7.460937-36.226563-29.253906-67.898438-60.421875-87.808594zm-138.753906 378.152344-51.992187 26.957031-51.992188-26.957031c-106.148438-55.023438-209.820312-159.25-182.496094-286.761719 6.535156-31.734375 25.613282-59.480469 52.90625-76.9375 25.484375-16.410156 56.523438-21.8125 86.050782-14.976562 42.964843 10.3125 76.613281 43.683593 87.277343 86.5625.988281 3.75 4.378907 6.359374 8.253907 6.359374s7.265624-2.609374 8.25-6.359374c10.671874-42.886719 44.339843-76.265626 87.324218-86.5625 29.511719-6.820313 60.527344-1.429688 86.007813 14.953124 27.296875 17.464844 46.375 45.21875 52.90625 76.960938 27.324219 127.511719-76.347657 231.738281-182.496094 286.761719zm0 0"/><path d="m152.847656 53.257812c4.5625.984376 9.070313-1.878906 10.117188-6.429687s-1.757813-9.097656-6.296875-10.203125c-7.035157-1.625-14.238281-2.449219-21.460938-2.457031-47.375 1.066406-87.671875 34.855469-96.980469 81.324219-.988281 4.605468 1.949219 9.144531 6.558594 10.132812 4.609375.984375 9.144532-1.949219 10.132813-6.558594 7.589843-38.617187 40.949219-66.800781 80.289062-67.832031 5.9375.007813 11.855469.6875 17.640625 2.023437zm0 0"/><path d="m170.691406 162.167969c-2.070312.015625-4.132812.285156-6.136718.800781-1.242188-1.429688-2.34375-2.976562-3.292969-4.617188-2.109375-4.214843-7.234375-5.929687-11.453125-3.820312-4.21875 2.105469-5.929688 7.234375-3.824219 11.449219 1.214844 2.296875 2.644531 4.46875 4.269531 6.496093-1.085937 1.40625-2.019531 2.921876-2.792968 4.523438-1.777344-1.054688-3.417969-2.328125-4.871094-3.796875-3.347656-3.234375-8.671875-3.191406-11.960938.101563-3.292968 3.292968-3.339844 8.613281-.105468 11.960937 6.007812 6.496094 14.273437 10.441406 23.097656 11.035156 4.714844 0 8.535156-3.820312 8.535156-8.53125 0-4.714843 3.820312-8.535156 8.535156-8.535156 4.710938 0 8.53125 3.820313 8.53125 8.535156 0 4.710938 3.820313 8.53125 8.535156 8.53125 4.710938 0 8.53125-3.820312 8.53125-8.53125 0-14.140625-11.460937-25.601562-25.597656-25.601562zm0 0"/><path d="m298.886719 222.011719c-4.597657.085937-8.375 3.652343-8.730469 8.234375-.085938 1.765625-1.765625 17.253906-34.132812 17.253906-32.214844 0-34.03125-15.359375-34.132813-17.226562-.046875-4.714844-3.902344-8.5-8.617187-8.453126-4.710938.042969-8.496094 3.902344-8.449219 8.613282 0 .34375.585937 34.132812 51.199219 34.132812 50.609374 0 51.199218-33.789062 51.199218-34.132812-.011718-4.613282-3.722656-8.359375-8.335937-8.421875zm0 0"/><path d="m130.523438 232.933594-8.535157 8.535156c-2.214843 2.140625-3.105469 5.3125-2.324219 8.296875s3.109376 5.316406 6.09375 6.09375c2.984376.78125 6.15625-.105469 8.296876-2.324219l8.535156-8.535156c3.234375-3.347656 3.1875-8.667969-.105469-11.960938-3.289063-3.292968-8.613281-3.339843-11.960937-.105468zm0 0"/><path d="m164.65625 232.933594-8.53125 8.535156c-2.21875 2.140625-3.109375 5.3125-2.328125 8.296875s3.109375 5.316406 6.09375 6.09375c2.984375.78125 6.15625-.105469 8.296875-2.324219l8.535156-8.535156c3.234375-3.347656 3.1875-8.667969-.105468-11.960938-3.289063-3.292968-8.613282-3.339843-11.960938-.105468zm0 0"/><path d="m381.523438 232.933594c-3.347657-3.234375-8.671876-3.1875-11.964844.105468-3.289063 3.292969-3.335938 8.613282-.101563 11.960938l8.53125 8.535156c3.351563 3.234375 8.671875 3.1875 11.964844-.105468 3.289063-3.292969 3.335937-8.613282.101563-11.960938zm0 0"/><path d="m347.390625 232.933594c-3.347656-3.234375-8.671875-3.1875-11.964844.105468-3.289062 3.292969-3.335937 8.613282-.101562 11.960938l8.53125 8.535156c3.347656 3.234375 8.671875 3.1875 11.964843-.105468 3.289063-3.292969 3.335938-8.613282.101563-11.960938zm0 0"/><path d="m51.222656 153.632812c0 4.714844-3.820312 8.535157-8.53125 8.535157-4.714844 0-8.535156-3.820313-8.535156-8.535157 0-4.710937 3.820312-8.53125 8.535156-8.53125 4.710938 0 8.53125 3.820313 8.53125 8.53125zm0 0"/><path d="m381.523438 173.203125c-3.332032-3.332031-8.734376-3.332031-12.066407 0-1.457031 1.46875-3.09375 2.746094-4.871093 3.804687-.773438-1.605468-1.707032-3.121093-2.792969-4.53125 1.625-2.027343 3.050781-4.199218 4.265625-6.496093 2.109375-4.214844.398437-9.34375-3.820313-11.449219-4.21875-2.109375-9.347656-.394531-11.453125 3.820312-.945312 1.644532-2.046875 3.191407-3.292968 4.617188-7.640626-1.964844-15.757813-.269531-21.972657 4.585938-6.21875 4.855468-9.824219 12.324218-9.761719 20.214843 0 4.710938 3.820313 8.53125 8.53125 8.53125 4.714844 0 8.535157-3.820312 8.535157-8.53125 0-4.714843 3.820312-8.535156 8.53125-8.535156 4.714843 0 8.535156 3.820313 8.535156 8.535156 0 4.710938 3.820313 8.53125 8.53125 8.53125 8.828125-.59375 17.09375-4.539062 23.101563-11.035156 3.332031-3.332031 3.332031-8.730469 0-12.0625zm0 0"/></svg>