<svg height="20pt" viewBox="0 -34 512.03991 512" width="20pt" xmlns="http://www.w3.org/2000/svg"><path d="m311.917969 406.222656-55.894531 29.015625-55.894532-29.015625c-33.304687-17.160156-64.421875-38.277344-92.671875-62.890625-67.414062-59.390625-114.261719-140.203125-94.292969-233.214843 6.433594-33.011719 25.878907-62.046876 53.949219-80.570313 28.074219-18.523437 62.417969-24.972656 95.300781-17.902344 46.035157 11.085938 82.101563 46.824219 93.609376 92.753907 11.507812-45.929688 47.574218-81.667969 93.609374-92.753907 13.453126-3.105469 27.339844-3.855469 41.046876-2.21875 53.90625 6.929688 97.414062 47.421875 108.203124 100.691407 28.328126 132.179687-77.996093 239.617187-186.964843 296.105468zm0 0" fill="#c81e1e"/><path d="m443.757812 153.296875c.015626 79.996094-43.042968 153.804687-112.691406 193.164063-69.644531 39.355468-155.089844 38.160156-223.609375-3.128907-67.414062-59.390625-114.261719-140.203125-94.292969-233.214843 6.433594-33.011719 25.878907-62.046876 53.949219-80.570313 28.074219-18.523437 62.417969-24.972656 95.300781-17.902344 46.035157 11.085938 82.101563 46.824219 93.609376 92.753907 11.507812-45.929688 47.574218-81.667969 93.609374-92.753907 13.453126-3.105469 27.339844-3.855469 41.046876-2.21875 34.332031 40.0625 53.164062 91.109375 53.078124 143.871094zm0 0" fill="#f44335"/><path d="m187.757812 243.238281c0-11.78125-17.195312-21.335937-38.402343-21.335937s-38.398438 9.554687-38.398438 21.335937 17.191407 21.332031 38.398438 21.332031 38.402343-9.550781 38.402343-21.332031zm0 0" fill="#bb193b"/><path d="m401.089844 243.238281c0-11.78125-17.191406-21.335937-38.398438-21.335937-21.210937 0-38.402344 9.554687-38.402344 21.335937s17.191407 21.332031 38.402344 21.332031c21.207032 0 38.398438-9.550781 38.398438-21.332031zm0 0" fill="#bb193b"/><path d="m170.691406 213.371094c-14.140625 0-25.601562-11.460938-25.601562-25.601563 0-14.136719 11.460937-25.597656 25.601562-25.597656 14.136719 0 25.597656 11.460937 25.597656 25.597656 0 14.140625-11.460937 25.601563-25.597656 25.601563zm0 0" fill="#283593"/><path d="m341.355469 213.371094c-14.136719 0-25.597657-11.460938-25.597657-25.601563 0-14.136719 11.460938-25.597656 25.597657-25.597656 14.140625 0 25.601562 11.460937 25.601562 25.597656 0 14.140625-11.460937 25.601563-25.601562 25.601563zm0 0" fill="#283593"/><path d="m306.558594 239.945312c-1.195313 11.765626-4.554688 23.210938-9.917969 33.757813-12.617187-6.234375-26.542969-9.367187-40.617187-9.132813-14.074219-.234374-28 2.898438-40.621094 9.132813-5.359375-10.546875-8.71875-21.992187-9.914063-33.757813-.277343-2.417968.492188-4.839843 2.109375-6.65625 1.621094-1.816406 3.941406-2.851562 6.371094-2.851562h84.105469c2.433593 0 4.753906 1.035156 6.371093 2.851562 1.621094 1.816407 2.390626 4.238282 2.113282 6.65625zm0 0" fill="#c81e1e"/><path d="m296.640625 273.703125c-7.730469 15.332031-23.441406 25.003906-40.617187 25.003906-17.175782 0-32.886719-9.671875-40.621094-25.003906 1.367187-.683594 2.734375-1.367187 4.183594-2.050781 23.375-9.441406 49.5-9.441406 72.875 0 1.449218.683594 2.816406 1.367187 4.179687 2.050781zm0 0" fill="#df4d60"/><path d="m292.460938 271.652344c-1.609376 2.332031-3.4375 4.503906-5.460938 6.484375-8.265625 8.046875-19.445312 12.390625-30.976562 12.035156-11.53125.355469-22.710938-3.988281-30.976563-12.035156-2.023437-1.980469-3.855469-4.152344-5.460937-6.484375 23.375-9.441406 49.5-9.441406 72.875 0zm0 0" fill="#e91e63"/><path d="m446.769531 20.515625c-29.347656-18.847656-65.070312-25.035156-99.046875-17.148437-40.683594 9.574218-74.582031 37.550781-91.699218 75.679687-17.117188-38.128906-51.023438-66.109375-91.707032-75.679687-33.984375-7.867188-69.699218-1.664063-99.039062 17.203124-31.15625 19.902344-52.953125 51.554688-60.433594 87.761719-29.335938 136.902344 79.597656 247.546875 191.328125 305.488281l55.925781 29.011719c2.460938 1.273438 5.390625 1.273438 7.851563 0l55.925781-29.011719c111.726562-57.917968 220.664062-168.585937 191.316406-305.496093-7.460937-36.226563-29.253906-67.894531-60.421875-87.808594zm-138.753906 378.15625-51.992187 26.957031-51.992188-26.957031c-106.148438-55.023437-209.820312-159.25-182.496094-286.761719 6.535156-31.734375 25.613282-59.480468 52.90625-76.9375 25.484375-16.414062 56.523438-21.816406 86.050782-14.976562 42.964843 10.308594 76.613281 43.683594 87.277343 86.5625.988281 3.746094 4.378907 6.359375 8.253907 6.359375s7.265624-2.613281 8.25-6.359375c10.671874-42.890625 44.339843-76.265625 87.324218-86.5625 29.511719-6.820313 60.527344-1.429688 86.007813 14.949218 27.296875 17.464844 46.375 45.222657 52.90625 76.964844 27.324219 127.511719-76.347657 231.738282-182.496094 286.761719zm0 0"/><path d="m152.847656 53.257812c4.5625.988282 9.070313-1.878906 10.117188-6.425781 1.046875-4.550781-1.757813-9.097656-6.296875-10.203125-7.035157-1.625-14.238281-2.449218-21.460938-2.457031-47.375 1.066406-87.671875 34.855469-96.980469 81.320313-.988281 4.609374 1.949219 9.148437 6.558594 10.132812 4.609375.988281 9.144532-1.945312 10.132813-6.554688 7.589843-38.617187 40.949219-66.800781 80.289062-67.832031 5.9375.007813 11.855469.6875 17.640625 2.019531zm0 0"/><path d="m170.691406 162.171875c-14.140625 0-25.601562 11.460937-25.601562 25.597656 0 14.140625 11.460937 25.601563 25.601562 25.601563 14.136719 0 25.597656-11.460938 25.597656-25.601563 0-14.136719-11.460937-25.597656-25.597656-25.597656zm0 34.132813c-4.714844 0-8.535156-3.820313-8.535156-8.535157 0-4.710937 3.820312-8.53125 8.535156-8.53125 4.710938 0 8.53125 3.820313 8.53125 8.53125 0 4.714844-3.820312 8.535157-8.53125 8.535157zm0 0"/><path d="m341.355469 162.171875c-14.136719 0-25.597657 11.460937-25.597657 25.597656 0 14.140625 11.460938 25.601563 25.597657 25.601563 14.140625 0 25.601562-11.460938 25.601562-25.601563 0-14.136719-11.460937-25.597656-25.601562-25.597656zm0 34.132813c-4.710938 0-8.53125-3.820313-8.53125-8.535157 0-4.710937 3.820312-8.53125 8.53125-8.53125 4.714843 0 8.535156 3.820313 8.535156 8.53125 0 4.714844-3.820313 8.535157-8.535156 8.535157zm0 0"/><path d="m307.222656 221.902344h-102.398437c-4.714844 0-8.535157 3.820312-8.535157 8.535156.324219 16.421875 4.28125 32.570312 11.589844 47.28125 9.214844 18.101562 27.800782 29.5 48.109375 29.511719 20.308594.015625 38.910157-11.363281 48.144531-29.449219 7.328126-14.730469 11.296876-30.898438 11.625-47.34375 0-4.714844-3.820312-8.535156-8.535156-8.535156zm-9.148437 17.066406c-.910157 8.0625-2.832031 15.980469-5.714844 23.5625-23.449219-8.660156-49.222656-8.660156-72.671875 0-2.886719-7.582031-4.808594-15.5-5.71875-23.5625zm-14.503907 38.898438c-1.484374 1.78125-3.136718 3.410156-4.941406 4.863281-.351562.28125-.71875.519531-1.066406.785156-1.636719 1.210937-3.378906 2.265625-5.207031 3.15625-.289063.136719-.5625.308594-.851563.433594-2.089844.90625-4.261718 1.601562-6.488281 2.074219-.511719.113281-1.039063.199218-1.570313.292968-4.902343.929688-9.941406.929688-14.847656 0-.527344-.09375-1.058594-.179687-1.578125-.300781-2.21875-.46875-4.386719-1.160156-6.46875-2.054687-.304687-.136719-.597656-.324219-.902343-.472657-1.800782-.867187-3.515626-1.90625-5.121094-3.097656-.382813-.289063-.785156-.542969-1.152344-.851563-1.777344-1.441406-3.410156-3.050781-4.878906-4.804687-.113282-.128906-.214844-.28125-.324219-.410156 18.125-5.699219 37.566406-5.699219 55.695313 0-.09375.128906-.1875.265625-.289063.386719zm0 0"/><path d="m130.523438 232.9375-8.535157 8.535156c-2.214843 2.140625-3.105469 5.3125-2.324219 8.296875s3.109376 5.3125 6.09375 6.09375c2.984376.78125 6.15625-.109375 8.296876-2.328125l8.535156-8.53125c3.234375-3.347656 3.1875-8.671875-.105469-11.960937-3.289063-3.292969-8.613281-3.339844-11.960937-.105469zm0 0"/><path d="m164.65625 232.9375-8.53125 8.535156c-2.21875 2.140625-3.109375 5.3125-2.328125 8.296875s3.109375 5.3125 6.09375 6.09375 6.15625-.109375 8.296875-2.328125l8.535156-8.53125c3.234375-3.347656 3.1875-8.671875-.105468-11.960937-3.289063-3.292969-8.613282-3.339844-11.960938-.105469zm0 0"/><path d="m381.523438 232.9375c-3.347657-3.234375-8.671876-3.1875-11.964844.105469-3.289063 3.289062-3.335938 8.613281-.101563 11.960937l8.53125 8.53125c3.351563 3.234375 8.671875 3.191406 11.964844-.101562 3.289063-3.292969 3.335937-8.613282.101563-11.960938zm0 0"/><path d="m347.390625 232.9375c-3.347656-3.234375-8.671875-3.1875-11.964844.105469-3.289062 3.289062-3.335937 8.613281-.101562 11.960937l8.53125 8.53125c3.347656 3.234375 8.671875 3.191406 11.964843-.101562 3.289063-3.292969 3.335938-8.613282.101563-11.960938zm0 0"/><path d="m51.222656 153.636719c0 4.714843-3.820312 8.535156-8.53125 8.535156-4.714844 0-8.535156-3.820313-8.535156-8.535156 0-4.710938 3.820312-8.53125 8.535156-8.53125 4.710938 0 8.53125 3.820312 8.53125 8.53125zm0 0"/></svg>