<svg height="512pt" viewBox="0 -12 512 511" width="512pt" xmlns="http://www.w3.org/2000/svg"><path d="m223 148.300781c0 60.199219-48.800781 109-109 109s-109-48.800781-109-109 48.800781-109 109-109 109 48.800781 109 109zm0 0" fill="#ffcd29"/><path d="m92.398438 172.300781 47.800781 33.398438 31.800781-116.398438-135.800781 50.199219 35 20.398438 100.800781-70.597657zm0 0" fill="#caecfc"/><path d="m71.199219 159.898438 6.199219 55.203124 15-42.800781 79.601562-83zm0 0" fill="#acdef9"/><path d="m92.398438 172.300781 19.402343 13.597657-34.402343 29.203124zm0 0" fill="#55acd5"/><path d="m473.800781 102.300781h-261c25.398438 54.597657 1.597657 119.398438-53 144.597657-27 12.601562-57.800781 13.402343-85.402343 2.601562v138.800781c0 18.398438 14.800781 33.199219 33.203124 33.199219h366.199219c18.398438 0 33.199219-14.800781 33.199219-33.199219v-252.800781c0-18.199219-14.800781-33.199219-33.199219-33.199219zm0 0" fill="#55acd5"/><path d="m322.601562 279.898438c-16 17.601562-43.203124 19-60.800781 3-1-1-2-2-3-3l-12.199219-11.398438-164.601562 141.199219c6.398438 7.601562 15.800781 12 25.601562 12h366.199219c10 0 19.398438-4.398438 25.597657-12l-164.597657-141.199219zm0 0" fill="#acdef9"/><path d="m473.800781 102.300781h-261c18.199219 39.398438 11.398438 85.800781-17.402343 118.199219l63.402343 59.398438c15.597657 17.203124 45.398438 17 63.800781 0l177-165.597657c-6.402343-7.601562-15.800781-12-25.800781-12zm0 0" fill="#acdef9"/><path d="m204 9.300781h-3.601562v-3.800781c0-2.800781-2.199219-5-4.796876-5-2.601562 0-5 2.199219-5 4.800781v.199219 3.601562h-3.601562c-2.800781 0-5 2.199219-5 4.796876 0 2.601562 2.199219 5 4.800781 5h.199219 3.601562v3.601562c0 2.800781 2.199219 5 4.796876 5 2.800781 0 5-2.199219 5-4.800781v-.199219-3.601562h3.601562c2.800781 0 5-2.398438 4.800781-5 0-2.398438-2.199219-4.597657-4.800781-4.597657zm0 0" fill="#ea4647"/><path d="m468.800781 447.699219c0-.398438-.199219-.597657-.199219-1-.203124-.199219-.203124-.597657-.402343-.800781-.199219-.199219-.398438-.597657-.597657-.796876-2-1.800781-5-1.800781-7 0-.203124.199219-.402343.398438-.601562.796876-.398438.601562-.601562 1.203124-.800781 1.800781-.199219.601562-.199219 1.402343 0 2 0 .402343.199219.601562.199219 1 .203124.199219.203124.601562.402343.800781s.398438.601562.597657.800781c2 2 5 2 7 0 .203124-.199219.402343-.402343.601562-.800781.199219-.199219.398438-.601562.398438-.800781.203124-.199219.203124-.597657.203124-1 .199219-.597657.199219-1.199219.199219-2zm0 0" fill="#6dcc6d"/><path d="m227.601562 52.898438c0-.398438-.203124-.597657-.203124-1-.199219-.199219-.199219-.597657-.398438-.796876-.199219-.203124-.398438-.601562-.601562-.800781-2-1.800781-5-1.800781-7 0-.199219.199219-.398438.398438-.597657.800781-.402343.597657-.601562 1.199219-.800781 1.796876-.199219.601562-.199219 1.402343 0 2 0 .402343.199219.601562.199219 1 .199219.203124.199219.601562.402343.800781.199219.199219.398438.601562.597657.800781 2 2 5 2 7 0 .199219-.199219.402343-.398438.601562-.800781.199219-.199219.398438-.597657.398438-.800781.199219-.199219.199219-.597657.199219-1 .402343-.796876.402343-1.398438.203124-2zm0 0" fill="#ffcd29"/><path d="m430.199219 471.101562c-8-1.601562-14.398438-7.800781-15.800781-15.800781 0-.199219-.199219-.402343-.398438-.199219-.199219 0-.199219.199219-.199219.199219-1.601562 8-7.800781 14.398438-15.800781 15.800781-.199219 0-.398438.199219-.199219.398438 0 .199219.199219.199219.199219.199219 8 1.601562 14.398438 7.800781 15.800781 15.800781 0 .199219.199219.398438.398438.199219.199219 0 .199219-.199219.199219-.199219 1.601562-8 7.800781-14.398438 15.800781-15.800781.199219 0 .402343-.199219.199219-.398438 0 0 0-.199219-.199219-.199219zm0 0" fill="#55acd5"/><path d="m473.800781 426.898438h-366.199219c-11.402343 0-22.203124-5-29.601562-13.796876-1.800781-2.203124-1.398438-5.203124.601562-7l164.597657-141.203124c2-1.597657 4.800781-1.597657 6.601562.203124l12.199219 11.398438c.199219 0 .199219.199219.199219.199219 14.199219 15.601562 38.199219 16.800781 53.601562 2.601562 1-.800781 1.800781-1.601562 2.597657-2.601562.203124-.199219.203124-.199219.402343-.398438l12.199219-11.402343c1.800781-1.796876 4.800781-1.796876 6.601562-.199219l164.597657 141.199219c2 1.800781 2.402343 4.800781.601562 7-6.800781 8.800781-17.601562 14-29 14zm-384.601562-16.796876c5.199219 4.398438 11.601562 6.796876 18.402343 6.796876h366.199219c6.800781 0 13.199219-2.398438 18.398438-6.796876l-157.199219-134.800781-8.800781 8.199219c-17.800781 19.601562-48.199219 21-67.800781 3-1-1-2-2-3-3l-8.796876-8.199219zm233.402343-130.203124"/><path d="m114 262.101562c-63 0-114-51-114-114s51-114 114-114 114 51 114 114c-.199219 63-51.199219 114-114 114zm0-217.800781c-57.398438 0-104 46.597657-104 104 0 57.398438 46.601562 104 104 104s104-46.601562 104-104c-.199219-57.402343-46.800781-104-104-104zm0 0"/><path d="m140.199219 210.699219c-1 0-2-.398438-2.800781-.800781l-47.796876-33.398438c-2.203124-1.601562-2.800781-4.601562-1.203124-7 .203124-.199219.402343-.398438.402343-.601562l44.199219-46.199219-58.800781 41.402343c-1.597657 1.199219-3.597657 1.199219-5.398438.199219l-35-20.402343c-2.402343-1.398438-3.199219-4.398438-1.800781-6.796876.601562-1 1.398438-1.800781 2.601562-2.203124l135.597657-50.199219c.601562-.199219 1.402343-.398438 2.199219-.398438h.402343c1.199219.199219 2.199219.800781 3 1.597657.199219.203124.199219.203124.398438.402343 1 1.199219 1.199219 2.800781.800781 4.398438l-31.800781 116.402343c-.597657 2.199219-2.597657 3.597657-5 3.597657zm-40.199219-39 37.199219 26 24.800781-90.800781zm-52-31.199219 23 13.398438 66.398438-46.597657zm0 0"/><path d="m77.398438 220.101562c-.199219 0-.398438 0-.597657 0-2.402343-.203124-4.199219-2-4.402343-4.402343l-6.199219-55c-.199219-1.800781.601562-3.597657 2-4.597657l100.800781-70.601562c2.199219-1.601562 5.398438-1 7 1.199219 1.398438 2 1.199219 4.601562-.398438 6.402343l-78.800781 82-14.601562 41.597657c-.800781 2-2.597657 3.402343-4.800781 3.402343zm-.796876-57.800781 3.398438 30.398438 7.800781-22c.199219-.597657.597657-1.199219 1.199219-1.800781l44.199219-46.199219zm0 0"/><path d="m77.398438 220.101562c-2.796876 0-5-2.203124-5-5 0-.601562 0-1.203124.203124-1.601562l15-42.601562c1-2.597657 3.796876-4 6.398438-3 .398438.203124.800781.402343 1.199219.601562l19.402343 13.398438c2.199219 1.601562 2.796876 4.601562 1.199219 7-.199219.402343-.601562.601562-.800781 1l-34.398438 29.203124c-.800781.597657-2 1-3.203124 1zm17.601562-39.800781-6.601562 19 15.402343-13zm0 0"/><path d="m473.800781 426.898438h-366.199219c-21.203124 0-38.203124-17.199219-38.203124-38.199219v-138.800781c0-2.796876 2.203124-5 5-5 .601562 0 1.203124.203124 1.800781.402343 53.402343 20.800781 113.800781-5.601562 134.601562-59 10.199219-26.402343 9.398438-55.800781-2.601562-81.601562-1.199219-2.597657 0-5.398438 2.402343-6.597657.597657-.402343 1.398438-.402343 2.199219-.402343h261c21.199219 0 38.199219 17.199219 38.199219 38.199219v253c0 20.800781-17 38-38.199219 38zm-394.402343-170.199219v131.800781c0 15.601562 12.601562 28.199219 28.203124 28.199219h366.199219c15.597657 0 28.199219-12.597657 28.199219-28.199219v-253c0-15.601562-12.601562-28.199219-28.199219-28.199219h-253.601562c5 13 7.601562 26.800781 7.601562 40.800781 0 63-51 114-114 114-11.601562 0-23.402343-1.800781-34.402343-5.402343zm0 0"/><path d="m289.601562 297.699219c-.800781 0-1.601562 0-2.402343 0-12.199219-.398438-23.597657-5.398438-32-14.199219l-63.199219-59.398438c-2-1.800781-2.199219-5-.398438-7 27.597657-31 34-75.203124 16.597657-112.800781-1.199219-2.601562 0-5.402343 2.402343-6.601562.597657-.398438 1.398438-.398438 2.199219-.398438h261c11.398438 0 22.199219 5 29.597657 14 1.601562 2 1.402343 5-.398438 6.800781l-177 165.597657c-10 9-23 14-36.398438 14zm-87.402343-77.597657 60 56.199219s.199219.199219.199219.199219c6.601562 7 15.601562 11 25 11.199219 11.601562.601562 23-3.597657 31.601562-11.398438l173.199219-162c-5.199219-4.402343-11.800781-7-18.597657-7h-253.402343c14.800781 38.199219 7.800781 81.199219-18 112.800781zm0 0"/></svg>